<svg width="122px" height="94px" viewBox="0 0 512 512" xml:space="preserve" xmlns="http://www.w3.org/2000/svg"><path d="M200.215 395.955s-19.567 11.378 13.923 15.229c40.571 4.628 61.309 3.964 106.018-4.498 0 0 11.754 7.371 28.172 13.754-100.229 42.96-226.84-2.486-148.113-24.485M187.968 339.9s-21.946 16.246 11.57 19.71c43.34 4.472 77.567 4.84 136.792-6.567 0 0 8.192 8.306 21.074 12.848-121.185 35.435-256.162 2.794-169.436-25.99M291.217 244.813c24.696 28.433-6.488 54.021-6.488 54.021s62.708-32.372 33.91-72.91c-26.898-37.803-47.524-56.588 64.14-121.348 0-.002-175.277 43.775-91.562 140.237" fill="#de6749" class="fill-000000"></path>
  <path
    d="M423.778 437.421s14.479 11.93-15.948 21.158c-57.85 17.525-240.794 22.82-291.612.697-18.268-7.946 15.99-18.974 26.768-21.29 11.238-2.436 17.66-1.983 17.66-1.983-20.317-14.31-131.316 28.102-56.383 40.251 204.358 33.14 372.523-14.925 319.515-38.833M209.624 281.82s-93.056 22.1-32.952 30.128c25.375 3.397 75.965 2.629 123.087-1.317 38.51-3.25 77.177-10.157 77.177-10.157s-13.579 5.816-23.403 12.523c-94.495 24.855-277.045 13.29-224.49-12.13 44.444-21.483 80.58-19.046 80.58-19.046M376.553 375.129c96.058-49.917 51.644-97.885 20.642-91.423-7.598 1.582-10.985 2.951-10.985 2.951s2.822-4.418 8.21-6.33c61.327-21.562 108.494 63.592-19.799 97.318 0 0 1.488-1.327 1.932-2.516M318.64 0s53.196 53.216-50.46 135.05c-83.12 65.643-18.955 103.071-.035 145.834-48.519-43.777-84.125-82.313-60.238-118.179C242.97 110.058 340.1 84.533 318.639 0"
    fill="#de6749" class="fill-000000"></path>
  <path
    d="M219.063 510.39c92.205 5.902 233.794-3.275 237.149-46.904 0 0-6.446 16.539-76.203 29.674-78.699 14.81-175.763 13.081-233.332 3.589.002 0 11.785 9.754 72.386 13.642"
    fill="#de6749" class="fill-000000"></path>
</svg>
